<?xml version="1.0" encoding="UTF-8"?>
<svg xmlns="http://www.w3.org/2000/svg" xmlns:xlink="http://www.w3.org/1999/xlink" viewBox="0 0 750 500">
  <defs>
    <style>
      .cls-1 {
        stroke: #fff0f4;
      }

      .cls-1, .cls-2, .cls-3, .cls-4, .cls-5, .cls-6, .cls-7, .cls-8, .cls-9, .cls-10, .cls-11, .cls-12, .cls-13, .cls-14, .cls-15 {
        fill: none;
      }

      .cls-1, .cls-2, .cls-3, .cls-4, .cls-6, .cls-7, .cls-8, .cls-10, .cls-12, .cls-13, .cls-14, .cls-15 {
        stroke-miterlimit: 10;
      }

      .cls-16 {
        fill: #ced6f2;
      }

      .cls-17 {
        fill: #3d43af;
      }

      .cls-18 {
        fill: #fff;
      }

      .cls-19 {
        fill: #f2f6fc;
      }

      .cls-20 {
        fill: #b8bfe6;
      }

      .cls-2 {
        stroke: #eaf8f9;
      }

      .cls-2, .cls-4, .cls-5, .cls-6, .cls-7, .cls-14, .cls-15 {
        stroke-linecap: round;
      }

      .cls-3, .cls-7 {
        stroke: #15325e;
      }

      .cls-21 {
        fill: #1c5180;
      }

      .cls-22 {
        fill: #2a334f;
      }

      .cls-23 {
        fill: #360f0a;
      }

      .cls-4 {
        stroke: #e1e8f5;
      }

      .cls-24 {
        fill: #e1e8f5;
      }

      .cls-5 {
        stroke: #cf5953;
        stroke-linejoin: round;
      }

      .cls-25 {
        fill: #6eb2c4;
      }

      .cls-26 {
        fill: #448fc2;
      }

      .cls-27 {
        fill: #f9ada7;
      }

      .cls-28 {
        fill: #1d0100;
      }

      .cls-29 {
        fill: #82b6db;
      }

      .cls-30 {
        fill: #4b90a0;
      }

      .cls-6 {
        stroke: #453448;
      }

      .cls-6, .cls-8 {
        stroke-width: .75px;
      }

      .cls-31 {
        fill: #061b3a;
      }

      .cls-32 {
        fill: #adcddb;
      }

      .cls-33 {
        fill: #cff3fc;
      }

      .cls-34 {
        fill: #941b3f;
      }

      .cls-35 {
        fill: #285989;
      }

      .cls-36 {
        fill: #d68163;
      }

      .cls-8 {
        stroke: #174f6b;
      }

      .cls-37 {
        fill: #89512c;
      }

      .cls-38 {
        fill: #2e5785;
      }

      .cls-39 {
        fill: #ebe1e2;
      }

      .cls-40 {
        fill: #5e2c1f;
      }

      .cls-41 {
        fill: #262e4a;
      }

      .cls-42 {
        fill: #ffac86;
      }

      .cls-43 {
        fill: #2c7fa3;
      }

      .cls-44 {
        fill: #a16337;
      }

      .cls-45 {
        fill: #70a8c4;
      }

      .cls-46 {
        fill: #a1a7bf;
      }

      .cls-47 {
        fill: #82ced8;
      }

      .cls-48 {
        fill: #453448;
      }

      .cls-10 {
        stroke: #6c3f91;
      }

      .cls-11 {
        clip-path: url(#clippath);
      }

      .cls-49 {
        fill: #08183d;
      }

      .cls-12 {
        stroke: #061b3a;
        stroke-width: .86px;
      }

      .cls-13 {
        stroke: #ced6f2;
        stroke-width: .5px;
      }

      .cls-50 {
        fill: #e4efed;
      }

      .cls-51 {
        fill: #451e18;
      }

      .cls-52 {
        fill: #7bcce0;
      }

      .cls-53 {
        fill: #83a4de;
      }

      .cls-54 {
        fill: #ffed00;
      }

      .cls-55 {
        fill: #fefffe;
      }

      .cls-56 {
        fill: #5766c9;
      }

      .cls-57 {
        fill: #53aedb;
      }

      .cls-14 {
        stroke: #1d0100;
      }

      .cls-58 {
        fill: #78c8e3;
      }

      .cls-59 {
        fill: #0f2752;
      }

      .cls-60 {
        fill: #51a9c9;
      }

      .cls-61 {
        fill: #e8aa80;
      }

      .cls-15 {
        stroke: #89512c;
      }

      .cls-62 {
        fill: #174f6b;
      }

      .cls-63 {
        fill: #ba2f54;
      }
    </style>
    <clipPath id="clippath">
      <path class="cls-9" d="m387.65,20.22c-34.95,3.78-67.35,20.67-89.93,46.4-22.58,25.73-37.37,56.67-53.55,86.46s-34.67,59.52-62.35,80.22c-26.39,19.74-60.75,31.04-79.84,57.33-19.66,27.07-61.51,127.98-44.05,156.38s81.97,12.55,114.49,23.58c32.52,11.03,77.28-13.08,111.69-10.45,111.68,8.54,226.94,9.17,332.22-27.39,37.88-13.16,76.33-33.2,94.29-67.63,17.87-34.26,38.23-79.65,18.56-113.01-19.67-33.36-77.76-56.14-109.77-79.21-32.02-23.07-65.81-44.32-93.81-71.73-19.72-19.31-36.46-41.57-58.62-58.29-22.19-16.71-46.39-26.22-79.33-22.66Z"/>
    </clipPath>
  </defs>
  <g id="BACKGROUND">
    <rect class="cls-9" width="750" height="500"/>
  </g>
  <g id="OBJECTS">
    <g>
      <g>
        <path class="cls-50" d="m378.62,22.7c-34.95,3.78-67.35,20.67-89.93,46.4-22.58,25.73-37.37,56.67-53.55,86.46s-34.67,59.52-62.35,80.22c-26.39,19.74-60.75,31.04-79.84,57.33-19.66,27.07-17.51,65.13-.05,93.53s47.97,47.86,80.49,58.9c32.52,11.03,67.28,14.45,101.69,17.09,111.68,8.54,226.94,9.17,332.22-27.39,37.88-13.16,76.33-33.2,94.29-67.63,17.87-34.26,11.23-76.65-8.44-110.01-19.67-33.36-50.76-59.14-82.77-82.21-32.02-23.07-65.81-44.32-93.81-71.73-19.72-19.31-36.46-41.57-58.62-58.29-22.19-16.72-46.39-26.23-79.33-22.67Z"/>
        <g>
          <g>
            <g>
              <path class="cls-45" d="m517.5,467.67c.2-54.66,15.64-109.14,43.78-154.42,28.13-45.28,68.83-81.17,119.02-99.53,5.56,55.8-8.31,113.64-38.23,159.36-29.92,45.72-75.62,78.89-124.57,94.59Z"/>
              <g>
                <path class="cls-2" d="m671.25,228.6c-58.88,68.39-106.54,146.42-140.52,230.03"/>
                <path class="cls-2" d="m641.35,265.26c-1.53-8.58-1.81-17.37-.85-26.03"/>
                <path class="cls-2" d="m625.9,286.35c14.39,2.16,29.06,2.42,43.52.76"/>
                <path class="cls-2" d="m594.53,332.92c-5.91-13.61-10.01-28.01-12.15-42.69"/>
                <path class="cls-2" d="m581.72,356.13c19.35,4.49,39.19,6.86,59.05,7.05"/>
                <path class="cls-2" d="m559.84,395.08c-7.04-11.82-12.46-24.6-16.05-37.88"/>
              </g>
            </g>
            <g>
              <path class="cls-47" d="m523.79,468.86c19.34-37.4,53.14-67.09,92.72-81.46,39.58-14.37,84.55-13.27,125.54,6.61-55.87,54.9-138.07,81.71-218.26,74.85Z"/>
              <g>
                <path class="cls-2" d="m724.54,397.68c-67.27,6.8-132.92,29.17-190.35,64.86"/>
                <path class="cls-2" d="m682.18,403.77c2.95-6.63,6.67-12.91,11.05-18.69"/>
                <path class="cls-2" d="m665.66,408.14c7.17,7.76,15.76,14.21,25.2,18.94"/>
                <path class="cls-2" d="m631.22,417.67c.16-11.24,2.66-22.44,7.28-32.69"/>
                <path class="cls-2" d="m611.9,424.74c5.43,11.32,13.08,21.57,22.4,29.98"/>
                <path class="cls-2" d="m584.59,435.37c-1.04-8.61-.87-17.36.5-25.92"/>
                <path class="cls-2" d="m564.51,445.7c7.5,6.65,16.65,11.42,26.39,13.77"/>
              </g>
            </g>
          </g>
          <g>
            <g>
              <path class="cls-47" d="m360.73,460.14c3.85-55.82,7.63-112.55-4.82-167.16-12.46-54.62-43.63-107.82-96.56-132.84-21.53,54.97-34.8,115.22-21.72,172.65,13.07,57.43,57.39,110.86,123.1,127.35Z"/>
              <g>
                <path class="cls-2" d="m268.35,178.63c9.89,37.28,19.77,74.57,29.66,111.85,14.63,55.2,29.41,110.79,54.38,162.15"/>
                <path class="cls-2" d="m301.85,199.24c-4.61,13.28-10.61,26.07-17.86,38.11"/>
                <path class="cls-2" d="m290.15,261.03c-17.17,2.31-34.55,3.04-51.85,2.17"/>
                <path class="cls-2" d="m306.58,320.64c16.25-13.1,30.34-28.87,41.53-46.49"/>
                <path class="cls-2" d="m315.15,354.01c-17.37,4.88-35.86,5.7-53.6,2.38"/>
                <path class="cls-2" d="m332.87,407.88c10.97-10.42,20.04-22.83,26.64-36.45"/>
              </g>
            </g>
            <g>
              <path class="cls-45" d="m339.4,461.76c-56.72-90.93-164.73-147.31-271.76-141.87,11.16,53.79,47.14,101.91,95.58,127.81s108.44,29.12,176.18,14.06Z"/>
              <g>
                <path class="cls-2" d="m85.55,331.33c23.58,23.78,47.44,47.8,75.89,65.46,30.26,18.79,64.64,29.72,98.8,39.8,22.54,6.65,45.17,13.01,67.87,19.07"/>
                <path class="cls-2" d="m126.14,370.3c3.12-13.74,4.48-27.88,4.03-41.96"/>
                <path class="cls-2" d="m114.07,359.63c-7.03,3.89-14.51,6.98-22.24,9.16"/>
                <path class="cls-2" d="m137.71,426.67c12.67-5.79,24.38-13.71,34.48-23.31"/>
                <path class="cls-2" d="m198.97,415.76c3.21-20.16,4.56-40.62,4.04-61.03"/>
                <path class="cls-2" d="m280.91,400.03c.38,13.85-1.02,27.75-4.15,41.24"/>
                <path class="cls-2" d="m266.8,438.88c-6.83,10.24-16.42,18.62-27.49,24.03"/>
              </g>
            </g>
          </g>
        </g>
        <g class="cls-11">
          <g>
            <g>
              <path class="cls-35" d="m374.83,198.7s-82.34,13.98-108.26,90.42c-29.49,86.99-25.08,175.79-25.08,175.79l98.65-8.44,34.69-257.77Z"/>
              <path class="cls-35" d="m449.1,210.56l-20.94-11.86-72.99,9.44s-47.78,247.71-40.85,248.05c6.93.34,182.79,3.52,182.79,3.52l-48.01-249.16Z"/>
              <path class="cls-35" d="m432.85,198.7s82.34,13.98,108.26,90.42c29.49,86.99,25.08,175.79,25.08,175.79l-98.65-8.44-34.69-257.77Z"/>
            </g>
            <g>
              <line class="cls-12" x1="403.65" y1="205.46" x2="403.65" y2="458"/>
              <path class="cls-29" d="m391.31,246.26c0,1.6,1.37,2.9,3.07,2.9s3.07-1.3,3.07-2.9-1.37-2.9-3.07-2.9-3.07,1.3-3.07,2.9Z"/>
              <path class="cls-29" d="m391.31,287.71c0,1.6,1.37,2.9,3.07,2.9s3.07-1.3,3.07-2.9-1.37-2.9-3.07-2.9-3.07,1.3-3.07,2.9Z"/>
              <path class="cls-29" d="m391.31,329.17c0,1.6,1.37,2.9,3.07,2.9s3.07-1.3,3.07-2.9-1.37-2.9-3.07-2.9-3.07,1.3-3.07,2.9Z"/>
              <path class="cls-29" d="m391.31,370.62c0,1.6,1.37,2.9,3.07,2.9s3.07-1.3,3.07-2.9-1.37-2.9-3.07-2.9-3.07,1.3-3.07,2.9Z"/>
              <path class="cls-29" d="m391.31,412.07c0,1.6,1.37,2.9,3.07,2.9s3.07-1.3,3.07-2.9-1.37-2.9-3.07-2.9-3.07,1.3-3.07,2.9Z"/>
            </g>
            <g>
              <g>
                <g>
                  <polygon class="cls-35" points="371.27 198.82 384.39 185.15 400.35 185.15 405.55 185.15 421.51 185.15 434.63 198.82 424.32 225.78 402.95 209.37 381.58 225.78 371.27 198.82"/>
                  <path class="cls-31" d="m371.64,199.19c3.8-3.95,7.59-7.91,11.39-11.86l1.11-1.16c.12-.13.53-.42.57-.6-.02.11-.55.02-.05.11.42.07.92,0,1.35,0h31.79c1.06,0,2.34.19,3.39,0,.55-.1.03.11-.02-.11.04.19.44.46.57.6,4.17,4.34,8.34,8.68,12.5,13.02l-.14-.52c-3.01,7.86-6.01,15.72-9.02,23.59-.43,1.13-.86,2.25-1.29,3.38l.79-.32c-6.23-4.78-12.45-9.56-18.68-14.34-.9-.69-1.8-1.38-2.7-2.07-.13-.1-.41-.1-.54,0-6.23,4.78-12.45,9.56-18.68,14.34l-2.7,2.07.79.32c-3.01-7.86-6.01-15.72-9.02-23.59-.43-1.13-.86-2.25-1.29-3.38-.24-.64-1.28-.36-1.04.29,3.01,7.86,6.01,15.72,9.02,23.59.43,1.13.86,2.25,1.29,3.38.11.28.49.55.79.32,6.23-4.78,12.45-9.56,18.68-14.34l2.7-2.07h-.54c6.23,4.78,12.45,9.56,18.68,14.34.9.69,1.8,1.38,2.7,2.07.3.23.68-.04.79-.32,3.01-7.86,6.01-15.72,9.02-23.59.43-1.13.86-2.25,1.29-3.38.07-.18-.01-.39-.14-.52-3.88-4.04-7.75-8.07-11.63-12.11-.45-.47-.94-1.2-1.49-1.55-.47-.3-1.17-.17-1.72-.17h-32.51c-1.01,0-2.1-.12-3.1,0-.53.06-.7.31-1.07.69-4.21,4.38-8.41,8.76-12.62,13.14-.48.5.28,1.26.76.76Z"/>
                </g>
                <g>
                  <g>
                    <path class="cls-31" d="m352.31,121.99c-2.76,0-5.01-2.12-5.01-4.74,0-1.95,1.24-3.62,3.02-4.35-.76-.56-1.26-1.43-1.26-2.42,0-1.7,1.46-3.08,3.25-3.08.07,0,.13.02.2.02-.02-.64-.06-1.27-.07-1.92-.79-38.04,35.54-40.3,52.27-40.05,47.8.7,50.14,28.66,49.67,44.54-.02.62-.05,1.24-.09,1.87.62.65,1.01,1.5,1.01,2.45,0,1.19-.61,2.23-1.53,2.9-.04.34-.09.68-.14,1.02.98.44,1.67,1.38,1.67,2.47,0,1.4-1.11,2.53-2.53,2.69,0,.03-.01.06-.02.09.75.59,1.24,1.46,1.24,2.45,0,1.45-1.02,2.66-2.42,3.06-.01.06-.03.13-.05.19,1.43.72,2.41,2.14,2.41,3.78,0,2.37-2.03,4.3-4.53,4.31-1.56,5.44-2.91,9.19-3,9.44-.81,2.4-1.9,4.55-3.16,6.51.33.64.53,1.34.53,2.1,0,2.66-2.27,4.81-5.08,4.81-.49,0-.96-.09-1.41-.21-18.98,15.77-56.28,9.66-59.81,7.98-1.64-.78-5.58-4.5-9.86-10.93-.54.22-1.13.35-1.76.35-2.45,0-4.43-1.88-4.43-4.19,0-1.42.75-2.67,1.89-3.43-1.91-3.65-3.75-7.81-5.37-12.49-.22.03-.43.06-.66.06-2.51,0-4.55-1.93-4.55-4.31,0-1.05.41-2,1.07-2.75-2.06-.34-3.62-2.03-3.62-4.07s1.68-3.84,3.83-4.09c-.02-.11-.04-.23-.06-.35-.53.18-1.09.3-1.69.3Z"/>
                    <g>
                      <g>
                        <path class="cls-42" d="m345.39,145.81c.24,6.01,5.62,10.7,12.02,10.47,6.4-.23,11.39-5.29,11.15-11.29-.24-6.01-5.62-10.7-12.02-10.47-6.4.23-11.39,5.29-11.15,11.29Z"/>
                        <path class="cls-42" d="m363.3,146.61s.22-7.41-7.77-6.3"/>
                      </g>
                      <g>
                        <path class="cls-42" d="m460.52,143.47c.24,6.01-4.75,11.07-11.15,11.29-6.4.23-11.78-4.46-12.02-10.47-.24-6.01,4.75-11.07,11.15-11.29,6.4-.23,11.78,4.46,12.02,10.47Z"/>
                        <path class="cls-42" d="m442.72,145.54s-.8-7.37,7.24-6.84"/>
                      </g>
                    </g>
                    <g>
                      <path class="cls-42" d="m385.42,190.96c-.11,6.81,6.41,12.73,14.49,13.15l6.26.33c8.08.42,14.79-4.81,14.91-11.62l.43-25.48c.11-6.81-6.41-12.73-14.49-13.15l-6.26-.33c-8.09-.42-14.79,4.8-14.91,11.62l-.43,25.48Z"/>
                      <path class="cls-42" d="m367.14,153.59c.25,13.41,12.04,24.2,26.21,23.97l21.74-.36c14.17-.23,25.56-11.4,25.31-24.81l-.79-43.08c-.25-13.41-12.04-24.2-26.21-23.97l-21.74.36c-14.17.23-25.56,11.4-25.31,24.81l.79,43.08Z"/>
                      <g>
                        <path class="cls-48" d="m409.05,151.99c-.42,3.28-3.41,5.61-6.65,5.62s-6.14-2.28-6.68-5.52c-.11-.68-1.15-.39-1.04.29.63,3.78,4.15,6.42,7.93,6.31s7.02-2.9,7.51-6.69c.09-.68-.99-.68-1.07,0h0Z"/>
                        <line class="cls-6" x1="401.53" y1="128.55" x2="401.53" y2="147.41"/>
                        <g>
                          <path class="cls-31" d="m426.36,125.11c1.09,0,2.21.36,3.04,1.1.83.74,1.29,1.74,1.32,2.81.03,1.07-.38,2.1-1.16,2.88-.78.78-1.84,1.23-2.97,1.25-.04,0-.08,0-.12,0-2.29,0-4.18-1.74-4.25-3.92-.06-2.22,1.79-4.07,4.14-4.13Z"/>
                          <path class="cls-31" d="m380.9,126.25c2.32-.01,4.3,1.7,4.36,3.92.03,1.07-.38,2.1-1.17,2.88-.78.78-1.84,1.23-2.97,1.25-.04,0-.08,0-.12,0-1.09,0-2.12-.39-2.92-1.11-.82-.74-1.29-1.74-1.32-2.81-.06-2.22,1.8-4.07,4.14-4.13Z"/>
                        </g>
                        <g>
                          <path class="cls-31" d="m383.9,119.43c-3.05.42-6.09.96-9.1,1.62-1.21.27-.7,2.13.51,1.86,3.01-.66,6.04-1.2,9.1-1.62.52-.07.8-.73.67-1.19-.15-.56-.67-.75-1.19-.67h0Z"/>
                          <path class="cls-31" d="m431.11,118.06c-3.65-.05-7.3-.09-10.95-.14-1.24-.02-1.24,1.92,0,1.93,3.65.05,7.3.09,10.95.14,1.24.02,1.24-1.92,0-1.93h0Z"/>
                        </g>
                      </g>
                    </g>
                  </g>
                  <g>
                    <path class="cls-31" d="m438.68,127.65c-.78-.68-1.28-1.65-1.28-2.74,0-1.42.84-2.64,2.07-3.27-1.85-.7-3.15-2.4-3.15-4.4s1.42-3.82,3.38-4.46c-1.65-.69-2.81-2.26-2.81-4.08,0-2.47,2.11-4.47,4.72-4.47s4.72,2,4.72,4.47c0,1.92-1.28,3.54-3.07,4.17,1.8.72,3.07,2.4,3.07,4.37s-1.3,3.68-3.13,4.39c1.24.63,2.09,1.85,2.09,3.27,0,1.1-.51,2.08-1.31,2.76,1.41.84,2.35,2.32,2.35,4.02,0,2.28-1.7,4.19-3.97,4.65.21.34.34.73.34,1.15,0,1.28-1.1,2.32-2.45,2.32s-2.45-1.04-2.45-2.32c0-.71.34-1.34.87-1.76-1.43-.84-2.39-2.33-2.39-4.04s.97-3.21,2.4-4.04Z"/>
                    <path class="cls-31" d="m357.32,115.84c0-2.5,1.59-4.65,3.86-5.61-.21-.46-.33-.97-.33-1.51,0-2.09,1.79-3.78,3.99-3.78s3.99,1.69,3.99,3.78c0,.91-.35,1.73-.92,2.39,1.45,1.13,2.39,2.82,2.39,4.73,0,2.29-1.33,4.26-3.29,5.32,1.1.75,1.82,1.97,1.82,3.35,0,1.23-.58,2.33-1.48,3.09.74.55,1.22,1.39,1.22,2.35,0,.65-.22,1.24-.59,1.73,1.17.45,1.99,1.53,1.99,2.8,0,1.13-.67,2.11-1.65,2.63.31.33.51.75.51,1.22,0,1.03-.88,1.87-1.98,1.87s-1.98-.84-1.98-1.87c0-.45.19-.84.47-1.16-1.04-.5-1.76-1.51-1.76-2.69,0-.65.22-1.25.59-1.75-1.16-.45-1.98-1.53-1.98-2.78,0-.61.19-1.17.52-1.64-1.55-.64-2.64-2.1-2.64-3.8,0-1.16.51-2.21,1.33-2.96-2.4-.9-4.09-3.11-4.09-5.7Z"/>
                  </g>
                </g>
              </g>
              <g>
                <path class="cls-54" d="m352.45,104.24v-10.66c0-26.65,22.82-48.26,50.97-48.26h0c28.15,0,50.97,21.61,50.97,48.26v10.66h-101.94Z"/>
                <path class="cls-54" d="m348.3,111.4l4.13-10.11,44.55-4.8-.07-1.57,7.3.79,7.3-.79-.07,1.57,42.95,5.4,3.71,8.28c-23.14,4.81-35.87,6.57-54.11,6.33-23.14.24-29.01.2-55.68-5.1Z"/>
                <g>
                  <path class="cls-18" d="m452.42,102.96s-59.56-8.18-106.23,1.28"/>
                  <polyline class="cls-18" points="414.96 49.8 414.96 88.65 383.34 88.65 381.81 49.8"/>
                  <image width="100" height="100" transform="translate(367.12 42.54) scale(.66 .47)" xlink:href="../../../../../../../../Stage/MedicalApp/stock/static/nomac.png"/>
                </g>
              </g>
            </g>
            <g>
              <g>
                <path class="cls-54" d="m347.54,207.1c1.13,13.38,6.26,45.65,29.66,67.75l-1.35,188.35-92.55,1.72,4.69-138.66s24.42-60.37,15.68-92.42c14.8-12.96,30.8-21.39,43.87-26.74Z"/>
                <g>
                  <polygon class="cls-18" points="376.43 383.03 286.07 383.03 287.17 350.53 376.66 350.53 376.43 383.03"/>
                  <polygon class="cls-18" points="376.09 430.52 284.46 430.52 285.46 400.97 376.3 400.97 376.09 430.52"/>
                </g>
              </g>
              <g>
                <path class="cls-54" d="m425.29,274.86c22.96-21.69,29.97-54.45,32.01-68.88,12.4,4.81,27.91,12.49,42.63,24.42-11.69,30.94,14.58,95.86,14.58,95.86l4.69,138.66-92.55-1.72-1.35-188.35Z"/>
                <g>
                  <polygon class="cls-18" points="518.03 430.52 426.4 430.52 426.19 400.97 517.03 400.97 518.03 430.52"/>
                  <polygon class="cls-18" points="516.42 383.03 426.06 383.03 425.83 350.53 515.33 350.53 516.42 383.03"/>
                </g>
              </g>
            </g>
          </g>
        </g>
      </g>
      <g>
        <path class="cls-46" d="m191.73,391.47c24.71-2.65,48.21-1.09,74.7-1.09-1.48-16.25-1.31-42.64.5-58.86-19.04-5.67-38.43-10.18-58.01-13.52-4.83,20.76-9.94,52.32-17.19,73.47Z"/>
        <g>
          <g>
            <g>
              <path class="cls-17" d="m271.86,473.07l-42.7-.56c.13-1.37.31-2.65.55-3.84,1.1-5.85,3.18-9.67,4.33-13.29l4.42-2s5.75,2.16,19.04,6.04c9.24,2.69,12.71,6.39,13.94,9.25,1.08,2.52.42,4.4.42,4.4Z"/>
              <path class="cls-20" d="m271.86,473.07l-42.7-.56c.13-1.37.31-2.65.55-3.84h41.73c1.08,2.52.42,4.4.42,4.4Z"/>
            </g>
            <g>
              <path class="cls-17" d="m175.59,473.07l42.7-.56c-.13-1.37-.31-2.65-.55-3.84-1.1-5.85-3.18-9.67-4.33-13.29l-4.42-2s-5.75,2.16-19.04,6.04c-9.24,2.69-12.71,6.39-13.94,9.25-1.08,2.52-.42,4.4-.42,4.4Z"/>
              <path class="cls-20" d="m175.59,473.07l42.7-.56c-.13-1.37-.31-2.65-.55-3.84h-41.73c-1.08,2.52-.42,4.4-.42,4.4Z"/>
            </g>
            <polygon class="cls-49" points="202.58 294.71 196.63 458.09 215.49 458.29 233.53 338.24 232.08 458.7 254.45 458.19 265.54 298.05 202.58 294.71"/>
          </g>
          <g>
            <path class="cls-24" d="m255.66,246.18l2.65-17.1s7.36,3.11,10.1,7.72c4.12,6.93,14.31,42.18,14.31,42.18l31.9-1.98,2.65,23.1s-37,12.62-43.55,9.85c-8.46-3.57-16.47-38.26-16.47-38.26l-1.59-25.51Z"/>
            <g>
              <path class="cls-36" d="m320.11,271.89s7.26-8.25,8.55-6.74c2.33,2.72-5.41,11.41-5.41,11.41l-3.14-4.67Z"/>
              <g>
                <rect class="cls-37" x="273.15" y="261.6" width="58.77" height="41.26" transform="translate(-8.61 554.93) rotate(-84.24)"/>
                <rect class="cls-19" x="277.45" y="263.19" width="50.46" height="35.02" transform="translate(-6.96 553.71) rotate(-84.24)"/>
                <g>
                  <path class="cls-53" d="m295.88,255.57l1.53-3.84c.51-1.29,1.82-2.08,3.2-1.94l10.1,1.02c1.38.14,2.5,1.18,2.75,2.54l.73,4.07-18.31-1.85Z"/>
                  <polygon class="cls-53" points="299.72 247 300.65 249.78 310.66 250.79 312.13 248.25 299.72 247"/>
                </g>
                <g>
                  <g>
                    <rect class="cls-16" x="308.17" y="253.12" width=".54" height="18.76" transform="translate(16.31 543.03) rotate(-84.24)"/>
                    <rect class="cls-16" x="307.95" y="255.25" width=".54" height="18.76" transform="translate(14 544.74) rotate(-84.24)"/>
                    <rect class="cls-16" x="307.74" y="257.39" width=".54" height="18.76" transform="translate(11.68 546.45) rotate(-84.24)"/>
                    <rect class="cls-16" x="307.53" y="259.51" width=".54" height="18.76" transform="translate(9.37 548.15) rotate(-84.24)"/>
                    <rect class="cls-13" x="290.86" y="261.22" width="6.7" height="6.43" transform="translate(1.6 530.64) rotate(-84.24)"/>
                  </g>
                  <g>
                    <rect class="cls-16" x="305.29" y="260.96" width=".54" height="22.55" transform="translate(4.03 548.94) rotate(-84.24)"/>
                    <rect class="cls-16" x="303.14" y="260.97" width=".54" height="26.42" transform="translate(.17 548.54) rotate(-84.24)"/>
                    <rect class="cls-16" x="302.93" y="263.11" width=".54" height="26.42" transform="translate(-2.1 550.31) rotate(-84.25)"/>
                    <rect class="cls-16" x="302.72" y="265.23" width=".54" height="26.42" transform="translate(-4.46 551.95) rotate(-84.24)"/>
                  </g>
                  <g>
                    <rect class="cls-16" x="303.14" y="280.14" width=".54" height="22.55" transform="translate(-16.99 564.04) rotate(-84.24)"/>
                    <rect class="cls-16" x="300.99" y="280.14" width=".54" height="26.42" transform="translate(-20.79 563.72) rotate(-84.25)"/>
                    <rect class="cls-16" x="300.78" y="282.28" width=".54" height="26.42" transform="translate(-23.16 565.37) rotate(-84.24)"/>
                    <rect class="cls-16" x="300.56" y="284.41" width=".54" height="26.42" transform="translate(-25.48 567.06) rotate(-84.24)"/>
                  </g>
                  <g>
                    <rect class="cls-16" x="306.18" y="272.89" width=".54" height="18.76" transform="translate(-5.16 558.84) rotate(-84.24)"/>
                    <rect class="cls-16" x="305.96" y="275.02" width=".54" height="18.76" transform="translate(-7.41 560.6) rotate(-84.25)"/>
                    <rect class="cls-16" x="305.74" y="277.16" width=".54" height="18.76" transform="translate(-9.74 562.3) rotate(-84.25)"/>
                    <rect class="cls-16" x="305.53" y="279.29" width=".54" height="18.76" transform="translate(-12.1 563.95) rotate(-84.24)"/>
                    <rect class="cls-13" x="288.88" y="280.99" width="6.7" height="6.43" transform="translate(-19.85 546.45) rotate(-84.24)"/>
                  </g>
                </g>
              </g>
              <g>
                <path class="cls-61" d="m320.43,275.55c1.66-1.17,3.4-2.23,5.22-3.17.53-.28,1.12-.55,1.73-.48.72.08,1.3.67,1.47,1.32.18.65.01,1.34-.28,1.96-1.17,2.44-4.11,3.65-6.79,4.65-1.26.47-2.92.85-3.79-.1-.47-.51-.51-1.27-.28-1.91s.86-.95,2.72-2.27Z"/>
                <path class="cls-61" d="m320.43,279.77c1.66-1.17,3.4-2.23,5.22-3.17.53-.28,1.12-.55,1.73-.48.72.08,1.3.67,1.47,1.32.18.65.01,1.34-.28,1.96-1.17,2.44-4.11,3.65-6.79,4.65-1.26.47-2.92.85-3.79-.1-.47-.51-.51-1.27-.28-1.91.23-.65.86-.96,2.72-2.27Z"/>
                <path class="cls-61" d="m320.43,283.98c1.66-1.17,3.4-2.23,5.22-3.17.53-.28,1.12-.55,1.73-.48.72.08,1.3.67,1.47,1.32.18.65.01,1.34-.28,1.96-1.17,2.44-4.11,3.65-6.79,4.65-1.26.47-2.92.85-3.79-.1-.47-.51-.51-1.27-.28-1.91.23-.65.86-.96,2.72-2.27Z"/>
                <path class="cls-61" d="m320.43,288.2c1.66-1.17,3.4-2.23,5.22-3.17.53-.28,1.12-.55,1.73-.48.72.08,1.3.67,1.47,1.32.18.65.01,1.34-.28,1.96-1.17,2.44-4.11,3.65-6.79,4.65-1.26.47-2.92.85-3.79-.1-.47-.51-.51-1.27-.28-1.91.23-.65.86-.96,2.72-2.27Z"/>
              </g>
            </g>
          </g>
          <g>
            <polyline class="cls-17" points="207.92 230.7 251.96 230.92 260.72 307.17 207.92 305.63"/>
            <g>
              <g>
                <g>
                  <path class="cls-61" d="m252.41,227.09s-16.98,16.77-18.88,16.86c-2.93.15-27.63-13.07-27.63-13.07,0,0,7.65-4.48,10.08-6.57,1.58-1.36,2.62-8.82,3.1-13.01.37-3.22.55-5.76.55-5.76l17.48-2.25s1.44,15.84,1.72,17.75c.18,1.24.37,2.17.54,2.61.94,2.43,13.04,3.44,13.04,3.44Z"/>
                  <path class="cls-36" d="m238.82,221.04c-10.66,1.99-17.13-5.69-19.74-9.75.37-3.22.55-5.76.55-5.76l17.48-2.25s.39,5.37.9,10.63c.25,2.64.53,5.25.81,7.13Z"/>
                </g>
                <g>
                  <g>
                    <path class="cls-36" d="m249.06,193.1c3.12-.99,6.36.45,7.25,3.21.88,2.77-.93,5.82-4.06,6.81-3.12.99-6.36-.45-7.25-3.21-.88-2.77.94-5.82,4.06-6.81Z"/>
                    <g>
                      <path class="cls-61" d="m214.1,192.01c0-12.67,8.19-22.94,18.29-22.94s17.62,10.29,18.29,22.94c.65,12.2-3.24,23.7-14.76,24.45-12.3,0-21.82-11.79-21.82-24.45Z"/>
                      <path class="cls-36" d="m218.78,197.69c2.78-3.28,4.66-7.42,5.37-11.8,1.45-.49,2.61-1.85,3.03-3.03,6.37,3.57,14.18,4.1,20.79,1.44,1.67,3.31,2.56,7.06,2.65,10.93.28-5.27.3-10.55.1-15.87-9.41-1.41-18.86-2.56-28.58-3.3-.9,6.86-1.79,13.72-3.36,21.63Z"/>
                    </g>
                    <g>
                      <path class="cls-37" d="m253.05,181.5c-.25.25-.53.46-.84.63.55,5.77-.05,11.82-1.72,16.75.26-5.22-.13-10.13-1.57-15.61-4.8,1.96-17.26,1.23-23.1-3.32.04,1.12-.98,3.8-2.64,4.06-.51,6.5-2.58,11.25-5.2,16.64-1.78-.66-3.57-1.32-5.48-2.23-1.09-3.64-2.18-7.31-2.5-11.11s.19-7.79,2.11-11.01,5.42-5.51,8.99-5.18c.6-1.44,1.5-2.72,2.61-3.8h0c2.62-2.57,6.39-4.06,10.06-4.11,5.22-.07,10.21,2.29,14.63,5.24,2.31,1.54,4.61,3.38,5.71,6.03.94,2.33.63,5.39-1.06,7.02Z"/>
                      <path class="cls-44" d="m253.05,181.5c.43-2.43-1.99-8.46-6.45-11.16-3.03-1.84-8.77-3.99-13.49-4.42-3.18-.29-6.48.13-9.42,1.42,2.62-2.57,6.39-4.06,10.06-4.11,5.22-.07,10.21,2.29,14.63,5.24,2.31,1.54,4.61,3.38,5.71,6.03.96,2.31.65,5.37-1.04,7Z"/>
                    </g>
                    <ellipse class="cls-61" cx="216.16" cy="199.21" rx="6.26" ry="5.28"/>
                  </g>
                  <g>
                    <path class="cls-15" d="m224.98,192.19c2.27-2.26,5.15-2.56,7.41-1.34"/>
                    <path class="cls-15" d="m248.23,191.17c-1.94-2-4.19-1.98-5.86-.52"/>
                    <ellipse class="cls-22" cx="232.22" cy="198.1" rx="1.1" ry="1.43"/>
                    <ellipse class="cls-22" cx="245.3" cy="196.95" rx="1.1" ry="1.43"/>
                    <path class="cls-5" d="m240.5,196.95c-.21,1.4.32,2.91,1.43,3.93-.42.86-1.05,1.61-1.8,2.15"/>
                    <path class="cls-5" d="m238.91,207.8s-2.72.62-6.5-2.05"/>
                  </g>
                </g>
              </g>
              <path class="cls-56" d="m233.53,243.95l6.6-20.07,8.04,2.84,2.23,16.9c-8.86-2.01-10.05-1.97-16.87.33Z"/>
              <path class="cls-56" d="m209.37,227.74l6.9-4.39,17.27,20.61c-6.17-.39-13.52.18-17.67,3.05l-6.5-19.27Z"/>
            </g>
          </g>
          <g>
            <g>
              <g>
                <rect class="cls-49" x="87.49" y="142.11" width="68.96" height="86.84" rx="2.89" ry="2.89" transform="translate(113.04 -36.33) rotate(31.02)"/>
                <rect class="cls-8" x="90.42" y="145.8" width="63.11" height="79.47" transform="translate(113.04 -36.33) rotate(31.02)"/>
              </g>
              <g>
                <g>
                  <path class="cls-62" d="m132.49,224.52c-.2.16-.42.3-.64.44-.64.42-1.35.74-2.07.87-.58.11-1.16.09-1.7-.11-1.42-.54-2.12-2.14-2.56-3.64-.49-1.71-.82-3.47-1-5.26-.09-.91-.14-1.85-.56-2.63-.42-.78-1.17-1.29-1.9-1.79-1.8-1.24-3.59-1.92-4.94-3.94-.78-1.14-.56-2.37-.39-3.4.15-.91.55-1.77.99-2.6.05-.11.11-.21.17-.32,5.59-10.51,12.11-20.54,19.45-29.91.58-.75,1.74-1.15,2.65-.97.14.02.28.06.4.12.32.14.58.4.81.67,2.29,2.54,3.72,5.61,3.99,9.63.29,4.13.14,6.4-.23,9.78-.49,4.63-1.49,9.35-2.75,13.97-.16.55-.32,1.11-.49,1.68-.94,2.92-2.22,5.89-3.47,8.64-.12.26-.24.52-.36.77-1.32,2.91-2.86,6.03-5.4,7.99h0Z"/>
                  <path class="cls-62" d="m110.07,197.43c-.07.09-.12.18-.18.26-.55.79-1.12,1.57-1.87,2.13-.83.63-1.82,1.4-3.18,1.25-2.43-.25-3.87-1.51-5.8-2.52-.78-.4-1.58-.82-2.47-.84-.89,0-1.74.39-2.58.74-1.65.69-3.37,1.22-5.11,1.59-1.53.31-3.27.45-4.41-.56-.96-.86-1.22-2.32-1.1-3.69.01-.18.04-.36.08-.54,0-.08.02-.16.03-.22.55-3.16,2.58-5.98,4.53-8.53.17-.23.34-.45.51-.68,2.2-2.85,4.65-5.89,7.26-8.34.51-.47,1.01-.94,1.52-1.41,3.04-2.76,6.22-5.35,9.52-7.57,2.81-1.91,4.75-3.11,8.53-4.79,3.67-1.65,7.07-1.82,10.37-.99.35.08.69.19.98.41.32.24.56.62.71,1.05.22.66.23,1.43-.03,2.04-4.85,10.88-10.65,21.35-17.31,31.22Z"/>
                  <g>
                    <g>
                      <path class="cls-27" d="m139.81,183.34c.2.07.4.14.59.2-.18-.11-.38-.17-.59-.2Z"/>
                      <path class="cls-30" d="m135.57,211.03c-.4-.55-.64-1.26-1.1-1.72.4.14.8.29,1.21.4.33.09.68.14,1.03.05.35-.09.71-.33.88-.69-.45.51-1.16.6-1.73.46-.57-.14-1.07-.46-1.63-.62-.6-.17-1.25-.17-1.91-.16.15-.11.3-.23.44-.36.67-.63,1.08-1.51,1.46-2.36-.35.33-.59.77-.88,1.17-.46.64-1.04,1.17-1.68,1.56-.62,0-1.22-.04-1.76-.27-1.37-2.77-3.57-3.62-4.69-4.23-1.04-.58-1.57-1.72-1.85-2.97.86.44,1.8.75,2.78.91.58.1,1.19.15,1.73.37.65.28,1.15.8,1.64,1.32-.03-.51-.36-.87-.7-1.16-.39-.33-.81-.61-1.27-.83.98-.19,1.95-.66,2.92-1.01.97.05,1.84.63,2.23,1.55.17.41.27.88.55,1.2.21.24.51.36.8.47.46.18.93.34,1.41.49-.91-.33-1.89-.72-2.26-1.67-.1-.27-.15-.56-.26-.83-.29-.72-.95-1.12-1.62-1.46.27-.06.54-.12.82-.14.68-.04,1.33.1,1.98.24.57.13,1.16.25,1.68.5-.75-.53-1.69-.71-2.6-.87.23-.11.46-.22.69-.33.08-.04.15-.07.23-.11.6-.29,1.2-.58,1.81-.87.39-.19.82-.38,1.2-.3-.51-.24-1.16.09-1.72.37-1.12.53-2.28.81-3.44,1.09h.03c-.45.02-.9.12-1.36.24-.35.09-.7.2-1.05.3.29-.25.61-.45.9-.7,1.39-1.18,1.99-3.14,3.21-4.52-.49.45-.93.97-1.29,1.54-.34.53-.62,1.12-1.02,1.6-.9,1.11-2.26,1.6-3.33,2.52-.51.13-1.03.24-1.53.28-.68-.21-1.39-.33-2.05-.57-.48-.18-.94-.45-1.29-.83-.02-.17-.04-.33-.05-.5-.18-2.11-.36-4.25-.15-6.45.2-2.1.67-4.22,1.42-6.27.37-1.01.81-2,1.33-2.95.26-.47.53-.94.82-1.38.09-.13.91-1.19.88-1.26,1.08,2.71,2.81,5.12,5.05,6.84.11.75.17,1.53-.01,2.31-.03.11-.06.23-.1.34-.16.27-.33.52-.52.78-.57.8-1.16,1.59-1.7,2.4-.45.45-1.02.77-1.59.85-.46.07-.91-.01-1.38.1-.48.11-.92.42-1.34.72-.18.12-.37.26-.43.47.32-.52.93-.74,1.47-.77.54-.03,1.06.09,1.6.06.33-.02.69-.13.98-.33l-.03.05c-.28.48-.55,1-.67,1.53-.13.59-.1,1.22-.42,1.74.29-.45.52-.94.67-1.45.11-.38.18-.78.34-1.16.27-.65.79-1.17,1.25-1.7.5-.58.96-1.22,1.31-1.9-.25.99-.21,2,.11,2.85-.21-.62-.12-1.38.07-2.09.22-.82.59-1.6.85-2.41.2-.62.31-1.27.25-1.87.27.18.53.35.81.52,0,0,1.12.69,1.73,1.83,1.17,2.17-.87,6.8-.87,6.8.7-.93,1.22-2.17,1.53-3.37.19.29.47.5.77.66.37.2.79.33,1.16.53.74.39,1.33,1.04,1.68,1.85.02-.88-.54-1.57-1.17-2.04-.63-.47-1.35-.81-1.88-1.41-.16-.18-.31-.41-.36-.66.15-1.01.14-1.94-.07-2.53-.08-.22-.2-.44-.34-.64.85.09,1.86-.31,2.67-.04.52.18.89.6,1.25,1.02-.17-.59-.67-.95-1.19-1.18-.61-.28-1.28-.45-1.97-.49-.46-.02-.94,0-1.39-.07-.48-.49-.93-.83-.93-.83-1.15-.67-2.12-1.68-2.88-2.87,1.11-.39,2.13-1.35,3.24-1.87,1.31-.62,2.7-.6,4.03-.56.26,0,.53.02.78.06-1.43-.47-2.95-.82-4.48-.23-1.16.45-2.21,1.41-3.39,1.7-.22.05-.45.07-.66.05-.83-1.59-2.34-6.53-2.41-6.87-.01,0-1.36-.82-2.25-1.44-2.8,1.51-5.88,2.18-8.8,1.39-.39-.35-.72-.78-1-1.25-.2-.33-.38-.69-.55-1.04.33-.9.83-1.73,1.27-2.59.45-.88.84-1.85.83-2.79-.62,1.6-1.44,3.13-2.41,4.56-.01.02-.04.05-.05.07-.13-.26-.25-.53-.38-.78-.53-1.02-1.19-1.96-2.06-2.64-.86-.68-1.95-1.09-3.11-1.01,1.26-.1,2.38.55,3.17,1.48.57.68,1,1.49,1.37,2.33-1.26-.24-2.63-.06-3.81-.5-.42-.16-.82-.39-1.25-.52-.53-.16-1.12-.16-1.7,0,1.15-.16,1.96.84,2.99,1.21.7.26,1.5.22,2.27.23.65.02,1.32.09,1.85.41.01.04.03.08.05.13.33.82.66,1.65,1.07,2.41-1.77-.3-4.87-.67-6.81.05-.45.16-.9.39-1.35.64-.88-.15-1.72-.43-2.58-.66-.23-.21-.43-.48-.61-.74-.6-.85-1.29-1.68-2.25-2.04.44.44.87.87,1.31,1.31.18.18.36.36.49.57.15.22.24.48.35.73-.12-.02-.23-.06-.34-.07-1.35-.25-2.92-.13-4.16.81.72-.49,1.58-.6,2.34-.48.87.14,1.64.55,2.43.89.53.23,1.09.43,1.68.5-1.95,1.32-3.81,2.91-5.31,3.18,1.23-.22,2.51-.68,3.71-1.13,2.19-.82,4.16-2.21,6.39-2.51-.63,1.16-1,2.46-1.64,3.63-.4.73-.9,1.39-1.46,1.99-.69.13-1.42-.12-2.13-.14-1.38-.05-2.87.77-4.17.42.46.22.98.32,1.5.37.33.03.66.05,1.01.01.33-.04.65-.12.98-.16.75-.1,1.49,0,2.2.13-.84.79-1.78,1.48-2.72,2.11,1.41-.48,2.77-1.39,3.85-2.61.31-.35.59-.71.86-1.09.17.29.13.7.05,1.09-.19.91-.5,1.81-.92,2.67.58-.74.93-1.64,1.14-2.54.16-.67.23-1.35.29-2.02.91-1.38,1.73-2.82,2.87-3.92,1.31.02,2.61.2,3.84.47,2.09.59,4.39.96,6.59.98-.08,0-1.08,1.94-1.21,2.14-.48.76-1,1.5-1.54,2.2-1.09,1.39-2.3,2.66-3.62,3.8-1.34,1.15-2.76,2.15-4.25,2.99-1.32.74-2.88,1.73-4.3,1.62-1.1-.08-2.13-.36-3.16-.63-.79-2.01-2.28-3.55-4.11-4.41-.1-.19-.17-.4-.25-.6-.82-1.91-3.29-2.39-4.03-4.35.3,1.41,1.44,2.28,2.45,3.14.21.18.41.36.56.6.15.25.23.57.35.84-.95-.3-1.96-.44-3-.36,1.61.13,3.04.8,4.28,1.77-1.86.53-3.75.6-5.49.19,1.4.67,3.07.66,4.71.49.42-.04.86-.1,1.28-.26.86.77,1.62,1.69,2.28,2.67-.47-.11-.94-.22-1.43-.3-.68-.11-2.55-.25-4.69.02-.54-.02-1.05-.23-1.51-.48-.51-.28-.99-.6-1.54-.79-.42-.34-.78-.77-1.06-1.25-.23-.4-.4-.85-.71-1.19-.33-.37-.79-.58-1.14-.94.43.39.82.82,1.18,1.29.13.18.26.36.34.57.17.44.15,1.02.46,1.34-1.35-.06-2.85.49-4.07.02.58.54,1.47.56,2.3.47.83-.08,1.69-.24,2.44.03.35.12.65.33.97.51.42.24.87.44,1.34.58-1.86.34-3.81,1.02-5.29,2.32,2.79-1.85,6.41-2.14,8.81-2.01-.17.16-.33.32-.48.49-.11.13-.21.26-.34.37-.18.14-.39.23-.59.31-.93.41-1.78,1.1-2.41,1.98.37-.28.73-.56,1.1-.84.33-.25.66-.51,1.03-.65.28-.11.57-.15.84-.28.59-.28,1.03-.94,1.57-1.32.7.07,1.25.17,1.56.26.96.29,1.93.67,2.93.96-1.7.96-3.51,1.59-5.31,1.83,1.96.27,4.15-.34,6-1.65.46.1.94.19,1.42.22,1.48.09,3.04-.17,4.53-.66,3.1-.99,6.13-2.98,8.53-5.58.53-.57,1.04-1.18,1.5-1.82-.28.38-.42,1.11-.56,1.56-.18.55-.34,1.1-.47,1.65-.28,1.12-.48,2.25-.6,3.37-.25,2.28-.15,4.49.21,6.63.25,1.52.52,3,1.27,4.14-.46,2.1-.05,4.27,1.13,5.69-.67-1.45-.86-3.22-.56-4.97.16.15.33.31.53.44.92.65,2.32,1.05,3.68,2.23.06.48.1.96.06,1.45-.19.38-.43.72-.73,1.02-.25.25-.52.47-.77.71-.3.3-.57.64-.78,1.02.54-.4,1.04-.88,1.54-1.35.21-.2.42-.4.59-.63-.15.55-.41,1.09-.41,1.64,0,.44.14.83.21,1.25.07.42.05.91-.24,1.27.28-.39.58-.83.59-1.29,0-.43-.25-.78-.23-1.21.02-.35.21-.69.36-1.03.32-.7.48-1.46.48-2.2,1.09,1.19,2.09,3.01,2.75,6.02-.05-.68-.13-1.31-.25-1.88.48.24.95.48,1.43.72.53.27,1.08.54,1.71.55-1.24-.37-2.36-1.04-3.29-1.95-.15-.59-.33-1.12-.54-1.6.58.1,1.16.18,1.75.15.41-.02.83-.1,1.23-.09.16,0,.32.02.47.04.56.45,1.05.97,1.46,1.57.23.34.43.69.72.98.29.28.66.48,1.08.42-.53-.22-.96-.57-1.29-1.02h0Z"/>
                    </g>
                    <path class="cls-30" d="m140.8,157.43c.7.42.9,1.35.47,2.08l-.16.27c-.44.73-1.36.98-2.05.56.7.42.91,1.35.47,2.07l-.16.27c-.44.73-1.36.98-2.05.56.7.42.91,1.35.47,2.07l-.17.28c-.43.72-1.35.98-2.05.56.7.42.9,1.35.47,2.07l-.17.28c-.43.72-1.35.98-2.05.56.7.42.9,1.35.47,2.07l-.17.28c-.44.73-1.35.98-2.05.56.7.42.9,1.35.47,2.08l-.16.27c-.44.73-1.35.98-2.05.56.7.42.9,1.35.47,2.08l-.16.27c-.44.73-1.36.98-2.05.56l-1.97-1.19c-.7-.42-.9-1.35-.47-2.08l.16-.27c.44-.73,1.36-.98,2.05-.56-.7-.42-.91-1.35-.47-2.07l.16-.27c.44-.73,1.36-.98,2.05-.56-.7-.42-.91-1.35-.47-2.07l.17-.28c.43-.72,1.35-.98,2.05-.56-.7-.42-.9-1.35-.47-2.07l.17-.28c.43-.72,1.35-.98,2.05-.56-.7-.42-.9-1.35-.47-2.07l.17-.28c.44-.73,1.35-.98,2.05-.56-.7-.42-.9-1.35-.47-2.08l.16-.27c.44-.73,1.35-.98,2.05-.56-.7-.42-.9-1.35-.47-2.08l.16-.27c.44-.73,1.36-.98,2.05-.56-.7-.42-.91-1.35-.47-2.07l.16-.27c.44-.73,1.36-.98,2.05-.56l1.97,1.19c.7.42.9,1.35.47,2.08l-.16.27c-.43.73-1.35.98-2.05.56Z"/>
                  </g>
                </g>
                <rect class="cls-30" x="154.15" y="164.48" width="12.57" height="5.93" transform="translate(109.22 -58.73) rotate(31.02)"/>
              </g>
            </g>
            <g>
              <g>
                <path class="cls-61" d="m147.72,220.27c.84-5.33.29-10.88-1.6-15.94-.35-.94-.99-2.03-1.99-1.97-1.07.06-1.56,1.37-1.68,2.44-.32,2.9-.15,5.88.84,8.5-1.96,2.55-2.72,5.8-2.61,8.98,2.3-.51,4.67-.72,7.04-2.01Z"/>
                <g>
                  <polygon class="cls-61" points="147.28 219.92 150.92 228.65 140.11 238.69 137.66 229.01 147.28 219.92"/>
                  <path class="cls-61" d="m144.82,210.07c1.01,2.29,3.29,5.76,3.29,5.76,0,0-.27,6.38-1.31,8.66-1.84,4.04-7.01,6.2-11.12,4.95,2.93-6.45,5.87-12.92,9.14-19.37Z"/>
                </g>
              </g>
              <g>
                <path class="cls-55" d="m210.27,247.18l-3.61-19.71s-11.28,4.09-14.12,6.45c-2.86,2.39-21.67,22.68-23.67,22.19-2.89-.7-17.95-32.42-17.95-32.42l-15.24,15.46s16.77,49.26,26.04,50.13c9.27.86,44.29-19.16,44.29-19.16l4.26-22.94Z"/>
                <g>
                  <path class="cls-4" d="m193.9,275.69c4.31-10.15,5.39-21.64,3.07-32.41"/>
                  <path class="cls-4" d="m196.61,274.63c3.68-3.41,6.16-8.1,6.91-13.07"/>
                </g>
                <polygon class="cls-24" points="133.96 239.61 151.36 222.14 156.65 230.42 137.39 249.07 133.96 239.61"/>
              </g>
            </g>
          </g>
          <g>
            <path class="cls-55" d="m195.21,236.71c.97-5.81,19.8-12.82,19.8-12.82,0,0,7.32,13.8,7.32,31.54s-.07,140.75-.07,140.75l-36.13-2.46s4.19-127.61,9.08-157.01Z"/>
            <path class="cls-24" d="m222.33,275.94s.92-17.51,0-28.94c-.63-7.83-6.95-23.66-6.95-23.66,0,0-4.78,1.5-7.47,2.76s-4.99,23.83-4.75,24.38,10.96,6.12,10.96,6.12c0,0-7.07,7.3-7.02,8.1.06.8,15.23,11.24,15.23,11.24Z"/>
            <rect class="cls-24" x="193.8" y="365.93" width="22.69" height="4.32" transform="translate(-43.89 28.15) rotate(-7.09)"/>
          </g>
          <g>
            <path class="cls-55" d="m241.03,223.71s4.24,11.53,6.01,27.74c1.36,12.5-4.18,144.72-4.18,144.72l29.21-3.64s-1.69-150.4-8.9-160.19c-3.69-4.97-22.14-8.63-22.14-8.63Z"/>
            <path class="cls-24" d="m246.77,275.21s.1-19.89-1-27.67c-1.11-7.78-5.47-23.85-5.47-23.85,0,0,7.37.42,10.05,1.68,2.69,1.26,11.32,21.21,11.08,21.75s-10.15,9.01-10.15,9.01c0,0,7.33,7.3,7.27,8.1-.04.81-11.78,10.98-11.78,10.98Z"/>
            <polygon class="cls-24" points="268.64 368.81 268.4 364.55 250.29 363.47 250.53 367.74 268.64 368.81"/>
          </g>
        </g>
      </g>
      <g>
        <g>
          <g>
            <g>
              <polygon class="cls-61" points="496.36 312.8 488.58 326.08 482.8 317.28 480.14 313.24 479.25 311.88 488.48 306.06 489.49 306.93 490.68 307.94 496.36 312.8"/>
              <g>
                <g>
                  <g>
                    <path class="cls-52" d="m479.01,300.07c0,6.76-5.17,12.25-11.55,12.25-1.57,0-3.06-.33-4.43-.94-.02,0-.04-.01-.06-.02-4.15-1.86-7.06-6.21-7.06-11.28,0-6.77,5.17-12.26,11.55-12.26,2.02,0,3.92.55,5.57,1.52,3.56,2.07,5.98,6.1,5.98,10.73Z"/>
                    <path class="cls-60" d="m479.01,300.07c0,6.76-5.17,12.25-11.55,12.25-1.57,0-3.06-.33-4.43-.94-.02,0-.04-.01-.06-.02-3.72-2.04-6.25-6.14-6.25-10.88,0-6.76,5.16-12.24,11.54-12.24,1.7,0,3.3.39,4.76,1.09,3.57,2.08,5.99,6.11,5.99,10.74Z"/>
                    <g>
                      <polygon class="cls-52" points="456.69 297.81 466.63 299.94 466.67 302.22 456.72 303.53 456.69 297.81"/>
                      <polygon class="cls-52" points="457.67 294.78 466.3 297.92 466.93 296.99 459.86 291.38 457.67 294.78"/>
                    </g>
                  </g>
                  <g>
                    <path class="cls-43" d="m468.38,295.19c-2.7,0-4.88,2.36-4.88,5.28s2.05,5.11,4.63,5.25v.03h4.99l.88-10.56h-5.62Z"/>
                    <circle class="cls-25" cx="472.73" cy="300.47" r="5.28"/>
                  </g>
                </g>
                <path class="cls-61" d="m480.36,313.2c-2.45.68-9.33-2.08-10.99-3.88-1.85-2-2.72-4.25-.99-4.92.85-.33,2.35.61,5.48.22,1.05-4.43-1.62-7.68-1.97-9.58-.48-2.58,4.72-3.25,5.72-1.06,1.87-1.32,5.54-.37,6.22,1.72,1.08-.34,2.35-.1,3.19.61s1.21,1.86.93,2.89c1.78.23,2.6.93,2.62,2.7.04,2.84-1.81,8.46-4.65,9.53-2.84,1.08-3.91,1.31-5.56,1.77Z"/>
              </g>
            </g>
            <path class="cls-36" d="m496.36,312.8l-7.78,13.28-5.78-8.79c2.26-4.21,5.46-7.36,7.88-9.35l5.68,4.86Z"/>
          </g>
          <path class="cls-24" d="m542.99,297.06l-9.07-15.84s-4.91,2.3-8.75,8.38-10.82,29.88-14.51,30.32c-3.68.44-18.81-14.5-18.81-14.5,0,0-8.83,12.15-8.83,21.43,0,2.52,23.61,21.96,28.5,21.96,10.87,0,23.62-15.65,23.62-15.65l7.85-36.1Z"/>
        </g>
        <g>
          <g>
            <path class="cls-61" d="m542,278.03s17.08,16.87,18.99,16.96c2.94.15,27.79-13.15,27.79-13.15,0,0-7.7-4.51-10.14-6.61-1.59-1.37-2.64-8.88-3.11-13.08-.37-3.24-.55-5.79-.55-5.79l-17.58-2.26s-1.45,15.94-1.73,17.86c-.18,1.24-.37,2.18-.54,2.62-.96,2.44-13.13,3.45-13.13,3.45Z"/>
            <path class="cls-36" d="m555.66,271.95c10.73,2,17.23-5.72,19.86-9.8-.37-3.24-.55-5.79-.55-5.79l-17.58-2.26s-.39,5.4-.9,10.69c-.26,2.65-.54,5.27-.83,7.16Z"/>
          </g>
          <g>
            <g>
              <path class="cls-36" d="m538.27,248.53c.55-2.37,3.55-3.69,6.7-2.95,3.15.74,5.25,3.25,4.69,5.62s-3.55,3.69-6.7,2.95c-3.15-.74-5.25-3.25-4.69-5.62Z"/>
              <path class="cls-21" d="m540.24,250.66c-.23-.91.38-1.86,1.39-2.21.08-.04.16-.06.25-.08.61-.15,1.2-.06,1.67.2.27.96.38,1.92.4,2.64-.29.34-.7.6-1.19.72-.11.03-.21.04-.32.06-1.04.11-1.98-.45-2.2-1.33Z"/>
            </g>
            <g>
              <path class="cls-61" d="m578.68,243.29c0-12.74-6.38-23.61-16.54-23.61s-18.39,3.79-18.39,23.07c0,12.29,3.26,23.84,14.85,24.59,12.36,0,20.08-11.31,20.08-24.05Z"/>
              <path class="cls-36" d="m576.3,248.89c-2.79-4.18-4.65-9.42-6.37-14.1-7.71,1.06-15.58.92-23.28-.5-1.28,3.58-2.3,7.26-3.15,11.03-1.09-5.78-.59-11.86,1.4-17.08,10.19-2.34,20.68-3.37,31.49-3.13.15,7.31-.25,15.44-.09,23.78Z"/>
            </g>
            <g>
              <path class="cls-28" d="m581.3,222.53c-.12-.2-.51-.46-1.13-.78-5.16-2.68-25.91-9.17-28.62-7.85-3.03,1.48.16,4.23.16,4.23,0,0-9.99-1.08-11.75,1.25s1.73,6.94,1.73,6.94c0,0-2.59-.34-3.33,1.56-.25.63.29,3.12,1.13,6.17,1.14,4.19,2.83,9.42,3.8,12.33.26-.51.55-1,.87-1.47.37-6.22,1.5-12.13,1.5-12.13,8.26,1.18,24.47-.21,24.47-.21l5.9,17.27h3.8s3.75-23.51,1.47-27.31Z"/>
              <path class="cls-23" d="m580.17,221.74c-6.33-2.15-12.86-3.68-19.49-4.53-.93-.12-1.89-.22-2.79,0-.91.22-1.79.82-2.08,1.71s.23,2.03,1.35,3c-3.01-.75-6.11-1.5-9.19-1.13-1.73.21-3.55.89-4.41,2.39-.58,1-.64,2.23-.4,3.36.23,1.12.74,2.17,1.6,2.91-1.75-.84-3.93.46-4.73,2.23-.34.76-.49,1.55-.52,2.38-.84-3.05-1.38-5.54-1.13-6.17.74-1.9,3.33-1.56,3.33-1.56,0,0-3.49-4.62-1.73-6.94,1.76-2.33,11.75-1.25,11.75-1.25,0,0-3.2-2.75-.16-4.23,2.69-1.34,23.43,5.15,28.6,7.83Z"/>
            </g>
            <g>
              <path class="cls-14" d="m569.59,242.93c-2.29-2.28-5.18-2.57-7.45-1.35"/>
              <path class="cls-14" d="m546.2,241.9c1.95-2.01,4.22-1.99,5.89-.52"/>
              <ellipse class="cls-41" cx="560.17" cy="248.88" rx="1.1" ry="1.44"/>
              <ellipse class="cls-41" cx="546.7" cy="248.88" rx="1.1" ry="1.44"/>
              <path class="cls-5" d="m554.18,249.62c.09,1.42-.58,2.88-1.78,3.81.35.9.91,1.7,1.62,2.32"/>
              <path class="cls-5" d="m555.69,258.95s3.24.44,7.37-3.03"/>
              <g>
                <circle class="cls-10" cx="563.06" cy="248.44" r="5.47"/>
                <path class="cls-10" d="m547.52,242.97c2.78,0,5.03,2.45,5.03,5.47s-2.25,5.47-5.03,5.47-5.03-2.45-5.03-5.47,2.25-5.47,5.03-5.47Z"/>
                <path class="cls-10" d="m557.98,246.48c-1.68-.9-3.79-.96-5.51-.15"/>
                <path class="cls-10" d="m568.41,247.02c2.68-1.08,7.86-2.04,10.98-1.47"/>
              </g>
            </g>
            <g>
              <path class="cls-61" d="m577.35,245.15c3.15-.98,6.32.2,7.08,2.64.76,2.44-1.19,5.21-4.34,6.19-3.15.98-6.32-.2-7.08-2.64-.76-2.44,1.19-5.21,4.34-6.19Z"/>
              <g>
                <path class="cls-36" d="m580.01,249.61c.03.86-.28,1.43-.7,1.81-.71.65-1.68.75-1.68.75-.09-.45-.14-.89-.15-1.33-.03-1,.1-1.96.25-2.66.15-.75.32-1.23.32-1.23,0,0,.76.14,1.34.84.32.41.59.98.62,1.82Z"/>
                <path class="cls-21" d="m581.2,249.61c0,.93-.82,1.72-1.88,1.81-.09.02-.17.02-.26.02-.63,0-1.18-.23-1.58-.6-.03-1,.1-1.96.25-2.66.36-.26.83-.41,1.33-.41.11,0,.22,0,.33.02,1.03.14,1.81.91,1.81,1.82Z"/>
              </g>
            </g>
          </g>
        </g>
        <g>
          <path class="cls-57" d="m587.93,280.31l-7.14-4.87-19.16,18.76c-2.54-3.51-7.48-9.28-8.41-18.36l-11.08,3-3.55,82.08,48.66-1.44.68-79.17Z"/>
          <g>
            <path class="cls-58" d="m561.59,294.21c6.49-6.49,14.19-15.53,16.59-19.96l3.44,1.19-2.94,18.83c-4.12-2.47-10.25-3-17.09-.06Z"/>
            <path class="cls-58" d="m561.59,294.21c-2.05-3.86-6.09-13.46-7.32-19.15l-5.67,1.95-.49,16.31s3.71-1.8,6.76-1.2c3.06.6,6.72,2.09,6.72,2.09Z"/>
          </g>
        </g>
        <polygon class="cls-46" points="527.45 438.68 596.63 439.71 599.7 389.1 528.03 388.8 527.45 438.68"/>
        <g>
          <path class="cls-55" d="m553.55,274.57s-4.18,16.3-6.89,30.06c-2.93,14.9-5.23,29.49-8.08,54.86-4.35,38.75,0,84.21,0,84.21l-16.24.69s1.7-151.28,8.95-161.12c3.7-5.02,22.26-8.7,22.26-8.7Z"/>
          <path class="cls-24" d="m554.22,274.26s-5.46,24.12-7.17,32.93c-1.71,8.81-4.12,19.67-4.12,19.67,0,0-9.85-12.26-8.84-14.25,1.01-1.99,7.36-6.48,7.36-6.48,0,0-9.13-6.6-7.89-8.42,1.24-1.82,8.73-19.42,11.96-21.65,1.83-1.26,8.7-1.8,8.7-1.8Z"/>
        </g>
        <g>
          <g>
            <rect class="cls-37" x="536.05" y="462.17" width="51.88" height="5.21"/>
            <g>
              <path class="cls-40" d="m542,411.99c0,.09,0,.17-.01.26l-.47,6.66-3.93,56.28c-.14,2.02-1.93,3.56-4,3.42-1.98-.13-3.5-1.75-3.5-3.67,0-.09,0-.17.01-.26l3.91-55.78.5-7.16c.14-2.02,1.92-3.56,4-3.42,1.98.13,3.49,1.75,3.49,3.67Z"/>
              <path class="cls-51" d="m542,411.99c0,.09,0,.17-.01.26l-.47,6.66h-7.51l.5-7.16c.14-2.02,1.92-3.56,4-3.42,1.98.12,3.49,1.74,3.49,3.66Z"/>
            </g>
            <g>
              <path class="cls-40" d="m566.66,411.92v63.08c0,1.01-.41,1.93-1.1,2.6-.67.66-1.61,1.08-2.65,1.08-2.08,0-3.75-1.65-3.75-3.68v-63.08c0-1.01.42-1.94,1.1-2.6.67-.66,1.62-1.08,2.65-1.08,2.07.01,3.75,1.65,3.75,3.68Z"/>
              <path class="cls-51" d="m566.66,411.92v6.98h-7.5v-6.98c0-1.01.42-1.94,1.1-2.6.67-.66,1.62-1.08,2.65-1.08,2.07.01,3.75,1.65,3.75,3.68Z"/>
            </g>
            <g>
              <path class="cls-40" d="m594.73,474.93c0,1.92-1.51,3.54-3.49,3.67-2.06.14-3.86-1.4-4-3.42l-3.93-56.28-.47-6.66c-.01-.09-.01-.17-.01-.26,0-1.92,1.51-3.54,3.49-3.67,2.06-.14,3.86,1.4,4,3.42l.5,7.16,3.9,55.78c0,.09,0,.18,0,.26Z"/>
              <path class="cls-51" d="m590.82,418.9h-7.51l-.47-6.66c-.01-.09-.01-.17-.01-.26,0-1.92,1.51-3.54,3.49-3.67,2.06-.14,3.86,1.4,4,3.42l.5,7.17Z"/>
            </g>
          </g>
          <path class="cls-37" d="m527.79,408.16v-5.63c0-2.86,2.32-5.18,5.18-5.18h56.48c2.86,0,5.18,2.32,5.18,5.18v5.63c0,2.86-2.32,5.18-5.18,5.18h-56.48c-2.86,0-5.18-2.32-5.18-5.18Z"/>
        </g>
        <g>
          <path class="cls-3" d="m542.27,251.73s6.18,30.03,16.87,30.03c9.75,0,17.29-17.72,19.54-30.57"/>
          <path class="cls-7" d="m558.95,284.26c-4.78,33.99-20.47,52.7-40.3,52.7-24.36,0-46.82-25.62-46.82-25.62"/>
          <polygon class="cls-38" points="557.72 285.15 558.18 281.98 560.17 282.06 559.66 285.44 557.72 285.15"/>
        </g>
        <g>
          <g>
            <g>
              <path class="cls-26" d="m473.11,478.68l42.95-.57c-.13-1.38-.32-2.66-.55-3.86-1.11-5.88-3.2-9.73-4.36-13.37l-4.44-2.01s-5.78,2.17-19.15,6.08c-9.29,2.71-12.78,6.42-14.02,9.3-1.09,2.54-.43,4.43-.43,4.43Z"/>
              <path class="cls-32" d="m473.11,478.68l42.95-.57c-.13-1.38-.32-2.66-.55-3.86h-41.97c-1.09,2.54-.43,4.43-.43,4.43Z"/>
            </g>
            <path class="cls-49" d="m539.41,359.49s-50.21,6.05-57.16,17.93c-6.94,11.88,7.51,86.05,7.51,86.05l24.72-.13-2.09-60.14,47.37-27.31-20.35-16.4Z"/>
          </g>
          <g>
            <g>
              <path class="cls-57" d="m486.81,480.31l42.95-.57c-.13-1.38-.32-2.66-.55-3.86-1.11-5.88-3.2-9.73-4.36-13.37l-4.44-2.01s-5.78,2.17-19.15,6.08c-9.29,2.71-12.78,6.42-14.02,9.3-1.09,2.54-.43,4.43-.43,4.43Z"/>
              <path class="cls-33" d="m486.81,480.31l42.95-.57c-.13-1.38-.32-2.66-.55-3.86h-41.97c-1.09,2.54-.43,4.43-.43,4.43Z"/>
            </g>
            <path class="cls-59" d="m591.62,358.87s5.02,36.14-3.81,39.49-62.91,3.82-62.91,3.82l2.89,63.31h-24.93s-13.38-73.12-3.29-84.82c10.1-11.7,49.16-11.01,48.53-11.17-5.39-1.36-9.81-10.01-9.81-10.01l53.33-.62Z"/>
          </g>
          <g>
            <g>
              <path class="cls-55" d="m601.81,285.82c-.79-2.74-21.77-11.27-21.77-11.27,0,0-7.36,13.88-7.36,31.72s.07,141.57.07,141.57l36.34-2.47s-1.69-140.24-7.28-159.55Z"/>
              <path class="cls-24" d="m572.68,326.91s-.93-17.62,0-29.11c.64-7.88,6.99-23.8,6.99-23.8,0,0,4.81,1.51,7.51,2.78s3.02,23.23,2.78,23.78-9.02,6.89-9.02,6.89c0,0,7.11,7.34,7.06,8.15-.06.81-15.32,11.31-15.32,11.31Z"/>
              <rect class="cls-24" x="587.76" y="408.18" width="4.35" height="22.82" transform="translate(100.7 953.19) rotate(-82.91)"/>
            </g>
            <g>
              <g>
                <g>
                  <path class="cls-36" d="m557.52,346.96s-9.12,1.28-8.66,3.89c.46,2.61,11.19,1.72,11.19,1.72l-2.53-5.61Z"/>
                  <path class="cls-61" d="m564.11,341.53c-.9-.65-1.95-1.33-3.04-1.13-.75.14-1.35.68-1.92,1.19l-3.36,3.06c-1.23,1.12-2.52,2.34-2.88,3.97-.36,1.63.74,3.68,2.84,3.67-.39.85-.31,1.91.22,2.69.53.77,1.48,1.23,2.58,1.27-.2.83.02,1.76.59,2.38.75.81,1.67.97,2.44.51.1,1.6,1.34,2.5,2.51,2.76,1.39.32,2.78-.16,3.64-.98,4.04,2.05,8.17-1.13,8.17-1.13,0,0,1.51-5.9,2.28-8.55-1-.59-10.51-7.16-14.07-9.71Z"/>
                  <g>
                    <path class="cls-5" d="m555.96,351.7c1.55-1.95,3.37-3.7,5.39-5.16"/>
                    <path class="cls-5" d="m558.71,355.76c1.34-1.78,2.92-3.38,4.69-4.73"/>
                    <path class="cls-5" d="m561.6,358.56c1-1.45,2.14-2.81,3.4-4.05"/>
                    <path class="cls-5" d="m567.27,360.02c-.63-.41-1.06-1.1-1.16-1.85"/>
                    <path class="cls-5" d="m566.51,359.49c-.52.37-1.14.6-1.78.65"/>
                  </g>
                </g>
                <polygon class="cls-61" points="574.63 349.6 584.3 348.82 586.34 361.36 573.36 360.92 574.63 349.6"/>
              </g>
              <path class="cls-55" d="m589.69,306.33l6.06-24.59s10.95,6.47,12.78,9.03c3.63,5.07,22.74,58.6,16.72,64.62s-44.22,10.83-44.22,10.83l-3.74-17.4s23.22-3.65,23.08-6.83c-.15-3.19-10.68-35.66-10.68-35.66Z"/>
              <g>
                <path class="cls-4" d="m597.8,294c-3.27,9.33-3.77,19.61-1.18,29.32,1.35,4.88,3.2,9.63,5.61,14.79-8.36,4.03-16.91,7.34-24.96,10.2"/>
                <path class="cls-4" d="m580.18,362c.56,1.82.85,3.23,1.65,5,8-1.05,16.73-2,24.42-4.46"/>
                <path class="cls-4" d="m598.21,328.95c-3.24-1.09-6.04-3.42-7.68-6.42"/>
              </g>
            </g>
          </g>
        </g>
      </g>
      <g>
        <g>
          <circle class="cls-47" cx="532.02" cy="177.92" r="35.8"/>
          <g>
            <path class="cls-63" d="m509,167.81c8.48-13.82,22.98,4.28,22.98,4.28,0,0,15.32-16.2,22.98-4.28,9.26,14.42-23.37,32.32-23.37,32.32,0,0-31.42-17.94-22.59-32.32Z"/>
            <polyline class="cls-1" points="499.67 181.32 518.34 181.32 521.22 169.85 527.01 192.91 532.02 164.79 536.22 189.99 542.77 174.19 545.62 181.37 560.85 181.37"/>
          </g>
        </g>
        <g>
          <circle class="cls-47" cx="293.3" cy="104.45" r="35.8"/>
          <g>
            <g>
              <path class="cls-34" d="m292.33,77.83c2.6-.95,5.35-.76,7.67.32,2.33,1.08,4.24,3.05,5.2,5.65l9.45,25.81c1.9,5.2-.76,10.96-5.97,12.87-5.2,1.9-10.96-.77-12.87-5.97l-9.45-25.81c-1.91-5.21.77-10.97,5.97-12.87Z"/>
              <path class="cls-39" d="m292.33,77.83c2.6-.95,5.35-.76,7.67.32,2.33,1.08,4.24,3.05,5.2,5.65l4.73,12.91-18.84,6.9-4.73-12.91c-1.91-5.21.77-10.97,5.97-12.87Z"/>
            </g>
            <g>
              <path class="cls-63" d="m268.93,95.13c1.96-1.96,4.53-2.94,7.09-2.94s5.13.98,7.09,2.94l19.44,19.44c3.91,3.91,3.92,10.27,0,14.18-3.91,3.91-10.27,3.91-14.18,0l-19.44-19.44c-3.91-3.91-3.91-10.26,0-14.18Z"/>
              <path class="cls-18" d="m268.93,95.13c1.96-1.96,4.53-2.94,7.09-2.94s5.13.98,7.09,2.94l9.72,9.72-14.18,14.18-9.72-9.72c-3.91-3.91-3.91-10.26,0-14.18Z"/>
            </g>
          </g>
        </g>
        <g>
          <circle class="cls-47" cx="521.46" cy="68.65" r="35.8"/>
          <g>
            <path class="cls-18" d="m540.93,47.8v26.22c0,5.53-2.73,10.7-7.31,13.81l-9.13,6.19c-.91.62-1.98.88-3.04.76-.68-.07-1.35-.3-1.96-.69l-9.83-6.31c-4.79-3.07-7.69-8.37-7.69-14.05v-25.93h38.96Z"/>
            <path class="cls-39" d="m540.93,47.8v26.22c0,5.53-2.73,10.7-7.31,13.81l-9.13,6.19c-.91.62-1.98.88-3.04.76v-46.98h19.48Z"/>
            <g>
              <rect class="cls-63" x="509.6" y="65.91" width="23.72" height="7.33"/>
              <rect class="cls-63" x="517.81" y="57.72" width="7.33" height="23.72"/>
            </g>
          </g>
        </g>
      </g>
    </g>
  </g>
</svg>